<svg id="visual" viewBox="0 0 900 600" width="900" height="600" xmlns="http://www.w3.org/2000/svg" xmlns:xlink="http://www.w3.org/1999/xlink" version="1.1"><rect x="0" y="0" width="900" height="600" fill="#001220"></rect><defs><linearGradient id="grad1_0" x1="33.3%" y1="0%" x2="100%" y2="100%"><stop offset="20%" stop-color="#001220" stop-opacity="1"></stop><stop offset="80%" stop-color="#001220" stop-opacity="1"></stop></linearGradient></defs><defs><linearGradient id="grad2_0" x1="0%" y1="0%" x2="66.7%" y2="100%"><stop offset="20%" stop-color="#001220" stop-opacity="1"></stop><stop offset="80%" stop-color="#001220" stop-opacity="1"></stop></linearGradient></defs><g transform="translate(900, 0)"><path d="M0 486.7C-69.6 486.7 -139.3 486.6 -186.3 449.7C-233.3 412.8 -257.6 338.9 -286.4 286.4C-315.2 233.8 -348.4 202.6 -382.5 158.4C-416.6 114.3 -451.7 57.1 -486.7 0L0 0Z" fill="#2fa94c"></path></g><g transform="translate(0, 600)"><path d="M0 -486.7C48.7 -445 97.3 -403.2 160 -386.2C222.6 -369.1 299.1 -376.8 344.2 -344.2C389.2 -311.5 402.8 -238.6 421.3 -174.5C439.8 -110.4 463.3 -55.2 486.7 0L0 0Z" fill="#2fa94c"></path></g></svg>